<svg width="999" height="272" viewBox="0 0 999 272" fill="none" xmlns="http://www.w3.org/2000/svg">
<path d="M435.696 194V77.6364H511.378V95.3068H456.776V126.898H507.457V144.568H456.776V176.33H511.832V194H435.696ZM590.213 226.727V180.25H589.361C588.3 182.371 586.766 184.625 584.759 187.011C582.751 189.36 580.099 191.367 576.804 193.034C573.509 194.701 569.361 195.534 564.361 195.534C557.505 195.534 551.368 193.773 545.952 190.25C540.535 186.727 536.255 181.614 533.111 174.909C529.967 168.205 528.395 160.061 528.395 150.477C528.395 140.78 529.986 132.598 533.168 125.932C536.387 119.227 540.724 114.17 546.179 110.761C551.634 107.314 557.713 105.591 564.418 105.591C569.531 105.591 573.736 106.462 577.031 108.205C580.327 109.909 582.94 111.973 584.872 114.398C586.804 116.784 588.3 119.038 589.361 121.159H590.611V106.727H610.838V226.727H590.213ZM570.099 178.659C574.455 178.659 578.168 177.485 581.236 175.136C584.304 172.75 586.634 169.436 588.224 165.193C589.815 160.951 590.611 156.008 590.611 150.364C590.611 144.72 589.815 139.814 588.224 135.648C586.671 131.481 584.361 128.242 581.293 125.932C578.262 123.621 574.531 122.466 570.099 122.466C565.516 122.466 561.69 123.659 558.622 126.045C555.554 128.432 553.243 131.727 551.69 135.932C550.137 140.136 549.361 144.947 549.361 150.364C549.361 155.818 550.137 160.686 551.69 164.966C553.281 169.208 555.611 172.561 558.679 175.023C561.785 177.447 565.592 178.659 570.099 178.659ZM687.599 157.295V106.727H708.168V194H688.224V178.489H687.315C685.346 183.375 682.107 187.371 677.599 190.477C673.13 193.583 667.618 195.136 661.065 195.136C655.346 195.136 650.289 193.867 645.895 191.33C641.539 188.754 638.13 185.023 635.668 180.136C633.205 175.212 631.974 169.265 631.974 162.295V106.727H652.543V159.114C652.543 164.644 654.058 169.038 657.088 172.295C660.118 175.553 664.096 177.182 669.02 177.182C672.05 177.182 674.986 176.443 677.827 174.966C680.668 173.489 682.997 171.292 684.815 168.375C686.671 165.42 687.599 161.727 687.599 157.295ZM729.318 194V106.727H749.886V194H729.318ZM739.659 94.3409C736.402 94.3409 733.598 93.2614 731.25 91.1023C728.902 88.9053 727.727 86.2727 727.727 83.2045C727.727 80.0985 728.902 77.4659 731.25 75.3068C733.598 73.1098 736.402 72.0114 739.659 72.0114C742.955 72.0114 745.758 73.1098 748.068 75.3068C750.417 77.4659 751.591 80.0985 751.591 83.2045C751.591 86.2727 750.417 88.9053 748.068 91.1023C745.758 93.2614 742.955 94.3409 739.659 94.3409ZM814.616 106.727V122.636H764.446V106.727H814.616ZM776.832 85.8182H797.401V167.75C797.401 170.515 797.817 172.636 798.651 174.114C799.522 175.553 800.658 176.538 802.06 177.068C803.461 177.598 805.014 177.864 806.719 177.864C808.007 177.864 809.181 177.769 810.241 177.58C811.34 177.39 812.173 177.22 812.741 177.068L816.207 193.148C815.109 193.527 813.537 193.943 811.491 194.398C809.484 194.852 807.022 195.117 804.105 195.193C798.954 195.345 794.313 194.568 790.185 192.864C786.056 191.121 782.779 188.432 780.355 184.795C777.969 181.159 776.795 176.614 776.832 171.159V85.8182ZM869.517 195.705C860.767 195.705 853.21 193.886 846.847 190.25C840.521 186.576 835.653 181.386 832.244 174.682C828.835 167.939 827.131 160.004 827.131 150.875C827.131 141.898 828.835 134.019 832.244 127.239C835.691 120.42 840.502 115.117 846.676 111.33C852.85 107.504 860.104 105.591 868.438 105.591C873.816 105.591 878.892 106.462 883.665 108.205C888.475 109.909 892.718 112.561 896.392 116.159C900.104 119.758 903.021 124.341 905.142 129.909C907.263 135.439 908.324 142.03 908.324 149.682V155.989H836.79V142.125H888.608C888.57 138.186 887.718 134.682 886.051 131.614C884.384 128.508 882.055 126.064 879.062 124.284C876.108 122.504 872.661 121.614 868.722 121.614C864.517 121.614 860.824 122.636 857.642 124.682C854.46 126.689 851.979 129.341 850.199 132.636C848.456 135.894 847.566 139.473 847.528 143.375V155.477C847.528 160.553 848.456 164.909 850.312 168.545C852.169 172.144 854.763 174.909 858.097 176.841C861.43 178.735 865.331 179.682 869.801 179.682C872.794 179.682 875.502 179.265 877.926 178.432C880.35 177.561 882.453 176.292 884.233 174.625C886.013 172.958 887.358 170.894 888.267 168.432L907.472 170.591C906.259 175.667 903.949 180.098 900.54 183.886C897.169 187.636 892.85 190.553 887.585 192.636C882.32 194.682 876.297 195.705 869.517 195.705ZM940.668 106.727L958.281 138.943L976.179 106.727H997.94L971.634 150.364L998.395 194H976.747L958.281 162.58L939.986 194H918.168L944.759 150.364L918.849 106.727H940.668Z" fill="#F0F0F0"/>
<path d="M0.25 46L117.113 46L149.25 88.0009H45.0474V138.002H68.4199H90.8186H136.59V179.003H45.0474V229.004H149.25C149.25 229.004 120.034 267.194 117.113 271H0.25V46Z" fill="#1B365E" stroke="black" stroke-width="0.5"/>
<path d="M362.372 100.578L337.055 81.1035L336.662 80.8008L336.356 81.1924L275.356 159.192L275.117 159.498L275.355 159.806L361.232 271H312.496L250.647 190.695L250.253 190.185L249.856 190.691L187.006 271H138.275L225.644 159.308L225.885 159L225.644 158.692L138.275 47H187.009L250.358 126.811L250.752 127.308L251.144 126.809L305.644 57.3086L305.951 56.916L305.56 56.6074L282.735 38.6396L376.136 0.788086L362.372 100.578Z" fill="#67CDB3" stroke="#67CDB3"/>
<path d="M137.25 46.5001H187.25L250.75 126.5L225.25 159L137.25 46.5001Z" fill="#1C385F" stroke="black" stroke-width="0.5"/>
<path d="M362.25 271.5H312.25L250.25 191L275.75 159.5L362.25 271.5Z" fill="#1C385F" stroke="black" stroke-width="0.5"/>
</svg>
